<svg xmlns="http://www.w3.org/2000/svg" xmlns:xlink="http://www.w3.org/1999/xlink" width="112.935" height="25.251" viewBox="0 0 112.935 25.251">
  <defs>
    <clipPath id="clip-path">
      <rect id="矩形_1175" data-name="矩形 1175" width="112.935" height="25.251" fill="none"/>
    </clipPath>
  </defs>
  <g id="组_2851" data-name="组 2851" transform="translate(0 0)">
    <g id="组_2851-2" data-name="组 2851" transform="translate(0 0)" clip-path="url(#clip-path)">
      <path id="路径_3510" data-name="路径 3510" d="M3.038,8.884a.622.622,0,0,1,.622,0l3.119,1.754V0H0V10.638Z" transform="translate(0 0)" fill="#00913a"/>
      <path id="路径_3511" data-name="路径 3511" d="M0,35.308V32.159a.622.622,0,0,1,.311-.539l2.727-1.574a.622.622,0,0,1,.622,0l2.727,1.574a.622.622,0,0,1,.311.539v3.149a.622.622,0,0,1-.311.539L3.66,37.421a.622.622,0,0,1-.622,0L.311,35.847A.622.622,0,0,1,0,35.308" transform="translate(0 -19.008)" fill="#00913a"/>
      <path id="路径_3512" data-name="路径 3512" d="M.1,57.179V50.894A12.662,12.662,0,0,1,2.83,55.041a10.65,10.65,0,0,1,4.013-4.712v6.85Z" transform="translate(-0.065 -31.928)" fill="#00913a"/>
      <path id="路径_3513" data-name="路径 3513" d="M94.152,0H76.713V5.79H94.2a1.962,1.962,0,0,1,1.97,1.9A1.788,1.788,0,0,1,94.2,9.731H78.543a1.83,1.83,0,0,0-1.83,1.83V25.251H82.5V15.52H94.2c5.18,0,7.719-2.5,7.76-7.636A7.819,7.819,0,0,0,94.152,0" transform="translate(-48.666 0)" fill="#091730"/>
      <path id="路径_3514" data-name="路径 3514" d="M0,0,21.405,25.251h4.445V0H19.567V13.477L7.843,0Z" transform="translate(0 0)" fill="#091730"/>
      <path id="路径_3515" data-name="路径 3515" d="M186.557,3.9,188.22,0h7.06L190.1,11.86Z" transform="translate(-118.35 0)" fill="#00913a"/>
      <path id="路径_3516" data-name="路径 3516" d="M191.122,0l11.152,25.251h7L198.122,0Z" transform="translate(-121.247 0)" fill="#091730"/>
      <path id="路径_3517" data-name="路径 3517" d="M135.131,31.589l9.488-21.6h6.691l-9.488,21.6Z" transform="translate(-85.726 -6.338)" fill="#00913a"/>
      <path id="路径_3518" data-name="路径 3518" d="M161.085,9.991l9.732,21.6h6.691l-9.732-21.6Z" transform="translate(-102.191 -6.338)" fill="#091730"/>
      <path id="路径_3519" data-name="路径 3519" d="M168.668,52.07l-1.926-3.749-1.926,3.749c-.873,1.7.2,3.835,1.926,3.835s2.8-2.137,1.926-3.835" transform="translate(-104.361 -30.654)" fill="#9ce00a"/>
      <path id="路径_3520" data-name="路径 3520" d="M257.323,9.731h-9.731a1.778,1.778,0,0,1-1.971-1.971,1.778,1.778,0,0,1,1.971-1.971h14.52L265.083,0H247.592c-5.222,0-7.76,2.538-7.76,7.76s2.538,7.76,7.76,7.76h9.731a1.778,1.778,0,0,1,1.97,1.971,1.778,1.778,0,0,1-1.97,1.971h-9.731l-.031,0h-7.729l2.882,5.791h14.609c5.222,0,7.76-2.538,7.76-7.76s-2.538-7.76-7.76-7.76" transform="translate(-152.148 0)" fill="#091730"/>
    </g>
  </g>
</svg>
