<svg xmlns="http://www.w3.org/2000/svg" xmlns:xlink="http://www.w3.org/1999/xlink" width="156.13" height="34.909" viewBox="0 0 156.13 34.909">
  <defs>
    <clipPath id="clip-path">
      <rect id="矩形_1174" data-name="矩形 1174" width="156.13" height="34.909" transform="translate(0 0)" fill="none"/>
    </clipPath>
  </defs>
  <g id="logo" transform="translate(0 0)">
    <g id="组_2849" data-name="组 2849" clip-path="url(#clip-path)">
      <path id="路径_3499" data-name="路径 3499" d="M4.2,12.282a.858.858,0,0,1,.86,0l4.312,2.425V0H0V14.707Z" fill="#00913a"/>
      <path id="路径_3500" data-name="路径 3500" d="M0,22.049V18.667a1.7,1.7,0,0,1,.85-1.473L3.779,15.5a1.7,1.7,0,0,1,1.7,0l2.929,1.691a1.7,1.7,0,0,1,.85,1.473v3.382a1.7,1.7,0,0,1-.85,1.473L5.48,25.213a1.7,1.7,0,0,1-1.7,0L.85,23.522A1.7,1.7,0,0,1,0,22.049" fill="#00913a"/>
      <path id="路径_3501" data-name="路径 3501" d="M.052,34.909V26.22C1.6,27.472,2.895,30,3.822,31.953a14.726,14.726,0,0,1,5.549-6.514v9.47Z" fill="#00913a"/>
      <path id="路径_3502" data-name="路径 3502" d="M62.883,0H38.775V8h24.18a2.713,2.713,0,0,1,2.723,2.632,2.472,2.472,0,0,1-2.723,2.817H41.305a2.53,2.53,0,0,0-2.53,2.53V34.909h8V21.456H62.955c7.162,0,10.672-3.453,10.728-10.556A10.81,10.81,0,0,0,62.883,0" fill="#fff"/>
      <path id="路径_3503" data-name="路径 3503" d="M0,0,29.592,34.909h6.146V0H27.051V18.632L10.843,0Z" fill="#fff"/>
      <path id="路径_3504" data-name="路径 3504" d="M94.294,5.4l2.3-5.4h9.76L99.194,16.4Z" fill="#00913a"/>
      <path id="路径_3505" data-name="路径 3505" d="M96.6,0,112.02,34.909H121.7L106.278,0Z" fill="#fff"/>
      <path id="路径_3506" data-name="路径 3506" d="M68.3,34.909,81.417,5.05h9.25L77.551,34.909Z" fill="#00913a"/>
      <path id="路径_3507" data-name="路径 3507" d="M81.42,5.05,94.873,34.909h9.25L90.67,5.05Z" fill="#fff"/>
      <path id="路径_3508" data-name="路径 3508" d="M88.9,29.607,86.24,24.423l-2.664,5.184c-1.206,2.348.278,5.3,2.664,5.3s3.869-2.954,2.663-5.3" fill="#9ce00a"/>
      <path id="路径_3509" data-name="路径 3509" d="M145.4,13.453H131.95a2.458,2.458,0,0,1-2.725-2.724A2.458,2.458,0,0,1,131.95,8h20.074l4.107-8H131.95c-7.219,0-10.728,3.509-10.728,10.729s3.509,10.727,10.728,10.727H145.4a2.458,2.458,0,0,1,2.724,2.725,2.458,2.458,0,0,1-2.724,2.724H131.95c-.015,0-.028,0-.043,0H121.222l3.985,8.007h20.2c7.219,0,10.728-3.509,10.728-10.728S152.622,13.453,145.4,13.453" fill="#fff"/>
    </g>
  </g>
</svg>
